<?xml version="1.0" encoding="utf-8"?>
<!-- Generator: Adobe Illustrator 26.0.2, SVG Export Plug-In . SVG Version: 6.00 Build 0)  -->
<svg version="1.1" id="레이어_1" xmlns="http://www.w3.org/2000/svg" xmlns:xlink="http://www.w3.org/1999/xlink" x="0px"
	 y="0px" viewBox="0 0 1000 1000" style="enable-background:new 0 0 1000 1000;" xml:space="preserve">
<style type="text/css">
	.st0{fill:#FFFFFF;}
</style>
<g>
	<path class="st0" d="M203.5,486.1c0.9-3.9,1.7-7.9,2.8-11.8c9.5-34.7,40.3-58.8,76.5-59.8c2.1-0.1,4.2,0,6.7,0
		c6.8-64.6,35.6-116.6,88-154.6c36.5-26.5,77.8-39.4,123-39.2c54.6,0.3,102.3,18.9,142.4,55.9c40.1,37,62,83.3,67.2,137.1
		c8,1,15.5,1.4,22.8,2.9c35.8,7.4,62.8,39.9,63.2,76.5c0.2,21.4,1,42.9-1.3,64.1c-3.9,36.4-36.7,65.9-73.3,67.8
		c-9.4,0.5-18.9,0.3-28.4,0.3c-12.5-0.1-19.6-7.3-19.6-19.9c0-57.5,0-115,0-172.5c0-41.2-11.9-78.7-38.5-110.2
		c-47.4-56.3-108.4-77.5-179.4-58.8c-71,18.7-113.2,67.2-127.2,139.4c-2,10.1-2.3,20.7-2.3,31.1c-0.2,56.3-0.1,112.7-0.1,169
		c0,14.2-4.4,20.3-18.3,21.9c-43.5,5.1-80.9-10-98-49.6c-2.9-6.8-4.3-14.3-6.4-21.4C203.5,531.6,203.5,508.8,203.5,486.1z"/>
	<path class="st0" d="M499.9,779.2c-7.7,0-15.4,0.1-23.1,0c-20.7-0.4-36.7-16.6-36.7-36.9c0-19.9,15.8-36.5,36.1-37.1
		c15.8-0.4,31.6-0.4,47.4,0c20.3,0.5,36.2,17.1,36.2,37c0,20.3-16.1,36.5-36.7,37C515.4,779.3,507.7,779.2,499.9,779.2z"/>
	<path class="st0" d="M419.6,731.5c0,7.5,0,13.8,0,20.2c-65.7,8.7-128.5-40.4-137.5-104.4c6.8,0,13.6,0,20.6,0
		c6,26.9,19.9,48.8,42.2,64.9C367.2,728.3,392.5,733.4,419.6,731.5z"/>
</g>
</svg>
