<?xml version="1.0" encoding="utf-8"?>
<!-- Generator: Adobe Illustrator 25.1.0, SVG Export Plug-In . SVG Version: 6.00 Build 0)  -->
<svg version="1.1" id="레이어_1" xmlns="http://www.w3.org/2000/svg" xmlns:xlink="http://www.w3.org/1999/xlink" x="0px"
	 y="0px" viewBox="0 0 1000 1000" style="enable-background:new 0 0 1000 1000;" xml:space="preserve">
<style type="text/css">
	.st0{fill:#FFFFFF;}
</style>
<g>
	<path class="st0" d="M228.87,497.5c-10.87,9.01-16.16,20.89-16.16,36.24c0,16.1,5.21,28.22,15.92,37.18
		c10.81,9.05,24.55,13.62,40.8,13.62h101.73V483.85H269.43C253.26,483.85,239.98,488.25,228.87,497.5z"/>
	<path class="st0" d="M498.77,752.79c10.34-12.57,15.54-28.29,15.54-46.77V330.04h73.65c22.2,0,40.86,6.64,55.49,19.75
		c14.63,13.25,22.66,31.3,23.91,53.64c0,24.4-7.18,43.99-21.29,58.26c-15.29,15.27-36.44,22.7-64.69,22.7h-37.81v100.77h68.84
		c58.42,0,103.62-18.96,134.31-56.31c26.95-32.13,40.57-74.47,40.57-125.92c0-15.7-2.2-31.63-6.66-47.41
		c-4.46-15.68-11.04-30.88-19.59-45.11c-8.47-14.16-18.41-26.69-29.49-37.36c-30.12-29.43-75.67-44.28-135.48-44.28H469.3
		c-22.64,0-40.39,6.35-52.89,18.96c-12.68,12.75-18.87,30.05-18.87,52.75v405.55c0,18.63,5.24,33.87,16.01,46.69
		c10.74,12.46,24.77,18.51,42.91,18.51C474.72,771.23,488.55,765.21,498.77,752.79z"/>
	<path class="st0" d="M371.16,584.54H269.43c-16.25,0-29.99-4.57-40.8-13.62c-10.71-8.97-15.92-21.08-15.92-37.18
		c0-15.35,5.29-27.23,16.16-36.24c11.11-9.26,24.39-13.65,40.56-13.65h101.73V584.54z M397.53,706.02V300.47
		c0-22.7,6.19-40,18.87-52.75c12.51-12.61,30.25-18.96,52.89-18.96h126.78c59.81,0,105.36,14.85,135.48,44.28
		c11.08,10.66,21.02,23.2,29.49,37.36c8.54,14.23,15.13,29.43,19.59,45.11c4.47,15.78,6.66,31.71,6.66,47.41
		c0,51.45-13.62,93.79-40.57,125.92c-30.69,37.36-75.89,56.31-134.31,56.31h-68.84V484.39h37.81c28.24,0,49.39-7.43,64.69-22.7
		c14.12-14.27,21.29-33.87,21.29-58.26c-1.25-22.33-9.28-40.39-23.91-53.64c-14.63-13.11-33.29-19.75-55.49-19.75h-73.65v375.98
		c0,18.48-5.21,34.2-15.54,46.77c-10.21,12.42-24.05,18.44-42.31,18.44c-18.14,0-32.17-6.06-42.91-18.51
		C402.77,739.89,397.53,724.66,397.53,706.02z"/>
</g>
</svg>
