<?xml version="1.0" encoding="utf-8"?>
<!-- Generator: Adobe Illustrator 26.0.0, SVG Export Plug-In . SVG Version: 6.00 Build 0)  -->
<svg version="1.1" id="레이어_1" xmlns="http://www.w3.org/2000/svg" xmlns:xlink="http://www.w3.org/1999/xlink" x="0px"
	 y="0px" viewBox="0 0 1000 500" style="enable-background:new 0 0 1000 500;" xml:space="preserve">
<style type="text/css">
	.st0{fill:#FFFFFF;}
</style>
<g>
	<g>
		<path class="st0" d="M157.2,117.8C84.2,117.8,25,177,25,250s59.2,132.2,132.2,132.2S289.4,323,289.4,250S230.2,117.8,157.2,117.8z
			 M138.4,308.9h-5.6c-32.1,0-58.3-25.7-58.9-57.7c-0.6-33,27.2-60,60.2-60h48.7c-14.7,7.6-26.2,20.6-31.9,36.4h-18.1
			c-13.2,0-23.9,10.8-23.8,24.1c0.1,9.6,6.4,18,15.2,21.7c4,1.7,7.7,2,11.2,1.6v-9.3h-2.6h-7.9v-30.8h7.9h5.6h10.3
			c-1.1,4.9-1.8,9.9-1.8,15.2c0,19.4,8.4,36.9,21.7,49c2.3,2.1,4.8,3.8,7.4,5.4l7.9,4.5H138.4z M230.9,227.5h-18.9
			c-13.1,0-23.8,10.6-23.8,23.8s10.6,23.8,23.8,23.8l1.3,0l16.3,0v0v0l1.3,0v33.7h-13.2h-5.6c-32.5,0-58.9-26.4-58.9-58.9
			c0-32.5,26.4-58.9,58.9-58.9h18.9V227.5z"/>
	</g>
	<polygon class="st0" points="651.6,190.6 621,190.6 578.6,190.6 548,190.6 548,227.1 581.6,227.1 581.6,308.3 618.2,308.3 
		618.2,227.1 651.6,227.1 	"/>
	<polygon class="st0" points="806.7,190.6 806.7,231.3 775.3,231.3 775.3,190.6 738.9,190.6 738.9,228.3 738.9,270.6 738.9,308.3 
		775.3,308.3 775.3,267.6 806.7,267.6 806.7,308.3 843.1,308.3 843.1,270.6 843.1,228.3 843.1,190.6 	"/>
	<path class="st0" d="M490.9,190.6c-32.5,0-58.8,26.3-58.8,58.8c0,32.5,26.3,58.8,58.8,58.8s58.8-26.3,58.8-58.8
		C549.7,217,523.4,190.6,490.9,190.6z M490.9,273.1c-13.1,0-23.7-10.6-23.7-23.7s10.6-23.7,23.7-23.7c13.1,0,23.7,10.6,23.7,23.7
		S503.9,273.1,490.9,273.1z"/>
	<g>
		<path class="st0" d="M891.8,295.6l-3.2,12.7h-42.4l43.5-116.6h41.8L975,308.3h-42.4l-3.2-12.7H891.8z M910.6,232.9l-11.8,30.2
			h23.5L910.6,232.9z"/>
	</g>
	<path class="st0" d="M710.4,274.5c-13.1,0-23.8-10.6-23.8-23.8c0-13.1,10.6-23.8,23.8-23.8h18.9v-36.4h-18.9
		c-32.5,0-58.8,26.3-58.8,58.8c0,32.5,26.3,58.8,58.8,58.8h5.6h13.2v-33.7L710.4,274.5z"/>
	<path class="st0" d="M380.3,190.6C380.3,190.6,380.3,190.6,380.3,190.6h-2v0c-32.1,1.1-58.8,27.7-58.2,60
		c0.6,32,26.8,57.8,58.9,57.8h5.6H425v-8v-35.3v-30.8h-30.1h-10.3h-5.6h-2.4v30.8v0h3v0h12.7v9.5h-12.7v0c-2.9,0.1-6-0.4-9.2-1.7
		c-8.8-3.7-15.1-12.2-15.2-21.7c-0.2-13.3,10.6-24.1,23.8-24.1H397H425v-28.6v-7.9H380.3z"/>
</g>
</svg>
