<?xml version="1.0" encoding="utf-8"?>
<!-- Generator: Adobe Illustrator 26.0.1, SVG Export Plug-In . SVG Version: 6.00 Build 0)  -->
<svg version="1.1" id="레이어_1" xmlns="http://www.w3.org/2000/svg" xmlns:xlink="http://www.w3.org/1999/xlink" x="0px"
	 y="0px" viewBox="0 0 1000 1000" style="enable-background:new 0 0 1000 1000;" xml:space="preserve">
<style type="text/css">
	.st0{fill:#005FFF;}
</style>
<g>
	<path class="st0" d="M308.3,394.4c1.1-3.3,2.1-6.5,3.1-9.5c38.7,38.4,77.2,76.6,115.8,114.8C388.5,538,350,576.2,311.3,614.5
		c-0.8-2.3-1.9-5.6-3-8.9C308.3,535.2,308.3,464.8,308.3,394.4z"/>
	<path class="st0" d="M327.7,367.9c4.5-1,8.4-1.9,12.2-2.6c1.3-0.3,2.7-0.1,4.1-0.1c103.9,0,207.8,0,311.8,0.1
		c5.2,0,10.4,1.3,15.7,2c0.4,0.8,0.8,1.6,1.2,2.4c-1.2,0.6-2.8,0.9-3.7,1.8c-52.7,52.8-105.4,105.6-158,158.5
		c-7.3,7.4-14.4,7.4-21.7,0.1c-52.8-52.9-105.5-105.9-158.3-158.8C330.1,370.5,329.3,369.6,327.7,367.9z"/>
	<path class="st0" d="M328.3,631.6c38.7-38.3,77.2-76.4,115.8-114.6c9.7,9.6,20,20,30.4,30.2c11.3,11.2,27.2,14.1,40.9,7.3
		c3.9-2,7.6-4.9,10.7-7.9c9.3-9,18.4-18.3,27.5-27.5c0.9-0.9,1.9-1.9,2.4-2.3c38.6,38.3,77,76.3,116.4,115.3c-4.6,1-8.4,2-12.2,2.7
		c-1.6,0.3-3.2,0.1-4.9,0.1c-103.6,0-207.3,0-310.9,0C339,634.8,333.6,634.3,328.3,631.6z"/>
	<path class="st0" d="M689,615.5c-39.2-38.8-77.6-77-116.2-115.2c38.8-38.4,77.3-76.6,116.3-115.2c0.8,4.1,2.5,8.6,2.5,13.2
		c0.2,67.9,0.2,135.7,0,203.6C691.5,606.3,689.9,610.8,689,615.5z"/>
</g>
</svg>
